<?xml version="1.0" encoding="utf-8"?>
<!-- Generator: Adobe Illustrator 24.3.0, SVG Export Plug-In . SVG Version: 6.00 Build 0)  -->
<svg version="1.1" id="Layer_1" xmlns="http://www.w3.org/2000/svg" xmlns:xlink="http://www.w3.org/1999/xlink" x="0px" y="0px"
	 viewBox="0 0 16 16" style="enable-background:new 0 0 16 16;" xml:space="preserve">
<style type="text/css">
	.st0{fill:#69A532;}
	.st1{fill:#4D5B2F;}
	.st2{fill:#91D700;}
	.st3{fill:#424143;}
</style>
<g>
	<path class="st0" d="M14.2,8.9c0,1.9-0.8,3.7-2.1,5l-3-3c0.5-0.5,0.8-1.2,0.8-2C10,8.9,14.2,8.9,14.2,8.9z"/>
	<path class="st1" d="M14.2,8.6H10C10,8.3,9.9,8.2,9.8,8L13,4.8C13.7,5.9,14.1,7.2,14.2,8.6z"/>
	<path class="st1" d="M11.1,3L7.9,6.1C7.8,6.1,7.6,6,7.4,6V1.8C8.8,1.8,10.1,2.3,11.1,3z"/>
	<path class="st0" d="M7.1,1.8L7,6C6.5,6,6,6.2,5.5,6.4L3.4,2.8C4.5,2.1,5.8,1.8,7.1,1.8z"/>
	<path class="st2" d="M5.4,6.6C5.3,6.6,5.3,6.6,5.4,6.6L2.3,3.7C2.5,3.4,2.9,3.2,3.2,3L5.4,6.6z"/>
	<path class="st1" d="M5,6.9C4.5,7.4,4.2,8.2,4.2,8.9H0c0-1.9,0.8-3.7,2.1-5L5,6.9z"/>
	<path class="st2" d="M4.5,10.1l-3.6,2.2C0.3,11.3,0,10.3,0,9.2h4.2C4.3,9.5,4.3,9.8,4.5,10.1z"/>
	<path class="st0" d="M5,10.9l-3,3c-0.4-0.4-0.7-0.8-1-1.3l3.6-2.2C4.8,10.5,4.9,10.7,5,10.9z"/>
	<path class="st1" d="M5.7,11.4l-1.6,3.9c-0.6-0.3-1.3-0.7-1.8-1.2l3-3C5.4,11.2,5.5,11.3,5.7,11.4z"/>
	<path class="st2" d="M10.7,15c-1.1,0.6-2.3,1-3.6,1c-1,0-1.9-0.2-2.7-0.5L6,11.5c0.3,0.2,0.7,0.2,1.1,0.2c0.5,0,1-0.2,1.4-0.4
		L10.7,15z"/>
	<path class="st3" d="M16,2c0,1.1-0.9,1.9-1.9,1.9c-0.3,0-0.7-0.1-1-0.3L8.8,7.9C8.9,8.1,9,8.3,9,8.6c0,0.1,0,0.2,0,0.3
		c0,1.1-0.9,1.9-1.9,1.9S5.2,9.9,5.2,8.9c0-1.1,0.9-1.9,1.9-1.9C7.4,6.9,7.8,7,8,7.1l4.3-4.3c-0.1-0.3-0.2-0.5-0.2-0.8
		C12.1,0.9,13,0,14.1,0C15.1,0,16,0.9,16,2z"/>
	<path class="st1" d="M12,14.1c-0.3,0.3-0.6,0.5-0.9,0.7l-2.2-3.6c0,0,0,0,0.1-0.1L12,14.1z"/>
</g>
</svg>
