<svg id="Layer_1" data-name="Layer 1" xmlns="http://www.w3.org/2000/svg" viewBox="0 0 75 75"><defs><style>.cls-0{fill:#fff;}.cls-1,.cls-3{fill:#fff;}.cls-1{stroke:#4e4c5b;stroke-miterlimit:10;stroke-width:3px;}.cls-2{fill:#4e4c5b;}</style></defs><title>drag_drop</title><rect class="cls-1" x="6.01" y="10.25" width="62.98" height="41.62"/><path class="cls-2" d="M30.91,26.44c2.12-4.6,8.1-4.78,10.41,0,3.79-1.49,6-.77,8.17,2.73a3.83,3.83,0,0,0,.63-.2A5.44,5.44,0,0,1,57.94,34c-.08,6.05-.18,12.1-.07,18.15.12,6.94-5.35,14.63-13,16.47-7.17,1.73-13.59-.09-19-5-2.3-2.09-4.41-4.4-6.56-6.64a7.37,7.37,0,0,1-2.12-4.68c-.14-2.23-.08-4.48,0-6.72a7.8,7.8,0,0,1,2.14-4.89,5.88,5.88,0,0,1,.92-1c2.06-1.44,2.6-3.41,2.33-5.81a14.48,14.48,0,0,1,.1-3.66,5.33,5.33,0,0,1,7.53-4.07ZM22.5,41.19C21,42.58,19.94,44,19.81,45.81c-.13,1.67-.08,3.35-.08,5a6.76,6.76,0,0,0,2.11,5C23.92,57.88,26,60,28.14,62A17.19,17.19,0,0,0,43,66.32c6.14-.95,11.68-6.56,12-12.72.36-6.67.2-13.36.19-20a2.53,2.53,0,0,0-2.72-2.47,2.72,2.72,0,0,0-2.66,2.58c0,.56,0,1.12-.11,1.67a1.17,1.17,0,0,1-1.38,1.12,1.25,1.25,0,0,1-1.23-1.4q0-1.89,0-3.78a2.82,2.82,0,0,0-2.76-2.94c-1.57,0-2.64,1.18-2.69,3,0,1.29,0,2.58-.1,3.88a1.2,1.2,0,0,1-1.36,1.26c-.8-.06-1.2-.52-1.19-1.4,0-2.24,0-4.48-.09-6.72a2.7,2.7,0,0,0-.28-1.19,2.71,2.71,0,0,0-5.16,1.3c-.05,2.27-.11,4.54-.16,6.81A1.1,1.1,0,0,1,32,36.46a1.21,1.21,0,0,1-1.3-1.33c0-1.29,0-2.59,0-3.88a2.9,2.9,0,0,0-2.93-2.92c-1.34,0-2.6,1.59-2.57,3,.06,4-.07,8-.1,12,0,.88-.42,1.36-1.24,1.34a1.26,1.26,0,0,1-1.33-1.42Z"/><path class="cls-3" d="M22.5,41.19v2a1.26,1.26,0,0,0,1.33,1.42c.82,0,1.24-.46,1.24-1.34,0-4,.16-8,.1-12,0-1.43,1.23-3,2.57-3a2.9,2.9,0,0,1,2.93,2.92c0,1.29,0,2.59,0,3.88A1.21,1.21,0,0,0,32,36.46a1.1,1.1,0,0,0,1.27-1.2c.05-2.27.11-4.54.16-6.81a2.71,2.71,0,0,1,5.16-1.3,2.7,2.7,0,0,1,.28,1.19c0,2.24.1,4.48.09,6.72,0,.88.39,1.34,1.19,1.4A1.2,1.2,0,0,0,41.5,35.2c.07-1.3.07-2.59.1-3.88,0-1.8,1.12-3,2.69-3a2.82,2.82,0,0,1,2.76,2.94q.06,1.89,0,3.78a1.25,1.25,0,0,0,1.23,1.4,1.17,1.17,0,0,0,1.38-1.12c.07-.55.07-1.11.11-1.67a2.72,2.72,0,0,1,2.66-2.58,2.53,2.53,0,0,1,2.72,2.47c0,6.68.17,13.37-.19,20-.33,6.16-5.87,11.77-12,12.72A17.19,17.19,0,0,1,28.14,62c-2.17-2-4.22-4.1-6.3-6.16a6.76,6.76,0,0,1-2.11-5c0-1.68-.05-3.36.08-5C19.94,44,21,42.58,22.5,41.19Z"/></svg>