<svg id="Layer_1" data-name="Layer 1" xmlns="http://www.w3.org/2000/svg" viewBox="0 0 65 65"><defs><style>.cls-0{fill:#fff;}.cls-1{fill:#ffffff;}.cls-2{fill:#4e4c5b;}</style></defs><title>office-copy-panel</title><path class="cls-1" d="M6.5,47.93A12.59,12.59,0,0,0,19.07,60.5H45.93A12.59,12.59,0,0,0,58.5,47.93V29H6.5Z"/><path class="cls-2" d="M45.93,1.5H19.07A15.59,15.59,0,0,0,3.5,17.07V47.93A15.59,15.59,0,0,0,19.07,63.5H45.93A15.59,15.59,0,0,0,61.5,47.93V17.07A15.59,15.59,0,0,0,45.93,1.5ZM58.5,47.93A12.59,12.59,0,0,1,45.93,60.5H19.07A12.59,12.59,0,0,1,6.5,47.93V29h52Z"/></svg>