<svg id="Layer_1" data-name="Layer 1" xmlns="http://www.w3.org/2000/svg" viewBox="0 0 75 75"><defs><style>.cls-0{fill:#fff;}.cls-1,.cls-3{fill:#fff;}.cls-1{stroke:#4e4c5b;stroke-miterlimit:10;stroke-width:3px;}.cls-2{fill:#4e4c5b;}</style></defs><title>blueprint-drag-drop-file-upload</title><rect class="cls-1" x="6.1" y="2.22" width="62.98" height="41.62"/><path class="cls-2" d="M43.87,31.36c2.12-4.6,8.1-4.78,10.41,0,3.79-1.49,6-.77,8.17,2.74a3.88,3.88,0,0,0,.63-.21,5.44,5.44,0,0,1,7.82,5.08c-.08,6-.18,12.11-.07,18.16.12,6.93-5.35,14.62-13,16.46-7.17,1.73-13.59-.08-19-5-2.3-2.09-4.41-4.39-6.56-6.64a7.37,7.37,0,0,1-2.12-4.68C30,55,30,52.71,30.1,50.48a7.8,7.8,0,0,1,2.14-4.9,5.88,5.88,0,0,1,.92-1c2.06-1.44,2.6-3.41,2.33-5.81a14.48,14.48,0,0,1,.1-3.66A5.33,5.33,0,0,1,43.12,31C43.37,31.16,43.62,31.26,43.87,31.36ZM35.46,46.11c-1.53,1.39-2.56,2.79-2.69,4.62-.13,1.67-.08,3.36-.08,5a6.74,6.74,0,0,0,2.11,5c2.08,2.07,4.13,4.18,6.3,6.16a17.13,17.13,0,0,0,14.84,4.34c6.14-.95,11.68-6.55,12-12.72.36-6.66.2-13.36.19-20A2.54,2.54,0,0,0,65.42,36a2.73,2.73,0,0,0-2.66,2.59c0,.55,0,1.11-.11,1.66a1.19,1.19,0,0,1-1.38,1.13A1.26,1.26,0,0,1,60,40c0-1.26,0-2.52,0-3.77a2.82,2.82,0,0,0-2.76-3c-1.57,0-2.64,1.18-2.69,3,0,1.29,0,2.59-.1,3.88a1.2,1.2,0,0,1-1.36,1.26c-.8-.05-1.2-.52-1.19-1.4,0-2.24,0-4.48-.09-6.72a2.7,2.7,0,0,0-.28-1.19,2.71,2.71,0,0,0-5.16,1.3c-.05,2.27-.11,4.54-.16,6.82A1.1,1.1,0,0,1,45,41.38a1.21,1.21,0,0,1-1.3-1.33c0-1.29,0-2.59,0-3.88a2.91,2.91,0,0,0-2.93-2.92c-1.34,0-2.6,1.6-2.57,3,.06,4-.07,8-.1,12,0,.87-.42,1.35-1.24,1.34a1.27,1.27,0,0,1-1.33-1.43Z"/><path class="cls-3" d="M35.46,46.11v2a1.27,1.27,0,0,0,1.33,1.43c.82,0,1.24-.47,1.24-1.34,0-4,.16-8,.1-12,0-1.43,1.23-3,2.57-3a2.91,2.91,0,0,1,2.93,2.92c0,1.29,0,2.59,0,3.88A1.21,1.21,0,0,0,45,41.38a1.1,1.1,0,0,0,1.27-1.19c.05-2.28.11-4.55.16-6.82a2.71,2.71,0,0,1,5.16-1.3,2.7,2.7,0,0,1,.28,1.19c0,2.24.1,4.48.09,6.72,0,.88.39,1.35,1.19,1.4a1.2,1.2,0,0,0,1.36-1.26c.07-1.29.07-2.59.1-3.88,0-1.8,1.12-3,2.69-3a2.82,2.82,0,0,1,2.76,3c0,1.25.05,2.51,0,3.77a1.26,1.26,0,0,0,1.23,1.41,1.19,1.19,0,0,0,1.38-1.13c.07-.55.07-1.11.11-1.66A2.73,2.73,0,0,1,65.42,36a2.54,2.54,0,0,1,2.72,2.48c0,6.67.17,13.37-.19,20-.33,6.17-5.87,11.77-12,12.72A17.13,17.13,0,0,1,41.1,66.9c-2.17-2-4.22-4.09-6.3-6.16a6.74,6.74,0,0,1-2.11-5c0-1.67,0-3.36.08-5C32.9,48.9,33.93,47.5,35.46,46.11Z"/><rect class="cls-2" x="21.15" y="13.94" width="8.75" height="18.61"/><rect class="cls-2" x="23.33" y="26.94" width="4.37" height="18.61" transform="translate(61.76 10.72) rotate(90)"/><polygon class="cls-2" points="25.52 19.24 12.65 19.24 19.08 12.27 25.52 5.3 31.96 12.27 38.4 19.24 25.52 19.24"/></svg>