<svg id="Layer_1" data-name="Layer 1" xmlns="http://www.w3.org/2000/svg" viewBox="0 0 65 65"><defs><style>.cls-0{fill:#fff;}.cls-1{fill:#4e4c5b;}</style></defs><title>office-copy-text-area</title><path class="cls-1" d="M58.5,15.5v-9h-9v3h-34v-3h-9v9h2v34h-2v9h9v-2h34v2h9v-9h-3v-34Zm-5,34h-4v5h-34v-5h-5v-34h5v-4h34v4h4Z"/><path class="cls-1" d="M29.75,15,17.86,50h4.67l3.63-11H38.57l3.74,11h4.83L35.2,15ZM27.1,35.46l3.43-10.13c.67-2.12,1.24-4.25,1.76-6.33h.11c.52,2,1,4.1,1.81,6.38l3.43,10.08Z"/></svg>