<svg id="Layer_1" data-name="Layer 1" xmlns="http://www.w3.org/2000/svg" viewBox="0 0 65 65"><defs><style>.cls-0{fill:#fff;}.cls-1{fill:#3498DB;}.cls-2{fill:#fff;}.cls-3{fill:none;stroke:#fff;stroke-miterlimit:10;stroke-width:2px;}</style></defs><title>nice-blue-select-box</title><rect class="cls-1" x="45.99" y="19.29" width="17.42" height="12.83"/><polygon class="cls-2" points="59.85 22.32 54.7 27.29 49.55 22.32 47.67 22.32 54.7 29.1 61.73 22.32 59.85 22.32"/><path class="cls-1" d="M46.47,32.62H1V18.75H46.47ZM2,31.62H45.47V19.75H2Z"/><path class="cls-1" d="M64,32.62H45V18.75H64ZM46,31.62H63V19.75H46Z"/><line class="cls-3" x1="8.41" y1="25.71" x2="34.99" y2="25.71"/><rect class="cls-1" x="8.41" y="34.42" width="26.58" height="1.83"/><rect class="cls-1" x="8.41" y="24.42" width="26.58" height="1.83"/><rect class="cls-1" x="8.41" y="39.42" width="26.58" height="1.83"/><rect class="cls-1" x="8.41" y="44.42" width="26.58" height="1.83"/><polygon class="cls-2" points="49.16 22.32 61.33 22.32 54.97 28.75 49.16 22.32"/></svg>