<svg  id="Layer_1" data-name="Layer 1" xmlns="http://www.w3.org/2000/svg" viewBox="0 0 65 65"><defs><style>.cls-0{fill:#fff;}.cls-1{fill:#3498DB;}.cls-2{fill:#fff;}.cls-3{fill:#3498DB;}</style></defs><title>nice-blue-label</title><path class="cls-1" d="M60.63,30.08c-3.44-4.49-7-8.89-10.73-13.16-1.82-2.09-4.46-2.77-7.23-2.77-11,0-22,0-33,0-4.29,0-6.53,1.91-6.53,6.29,0,8.67,0,17.33,0,26,0,4.37,2.1,6.44,6.41,6.43,5.33,0,10.66,0,16,0s11,0,16.49,0c3.32,0,6.29-.77,8.48-3.4,3.29-4,6.49-8,9.74-12C62.17,35.06,62.47,32.47,60.63,30.08ZM49.13,45.32A9.05,9.05,0,0,1,41,49.05c-4.81-.23-9.64,0-14.46-.06-5.15,0-10.31-.11-15.46,0-2.9.09-4.22-.72-4.15-3.91.17-7.8.14-15.62,0-23.43,0-2.84,1-3.76,3.81-3.74,10.64.11,21.27.08,31.91,0a6.38,6.38,0,0,1,5.25,2.32c.43.51.82,1,1.25,1.55C58.93,33.54,58.86,33.48,49.13,45.32Z"/><path class="cls-2" d="M47.93,20.3A6.38,6.38,0,0,0,42.68,18C32,18,21.41,18.07,10.77,18c-2.77,0-3.86.9-3.81,3.74.13,7.81.16,15.63,0,23.43-.07,3.19,1.25,4,4.15,3.91,5.15-.16,10.31,0,15.46,0,4.82,0,9.65-.17,14.46.06a9.05,9.05,0,0,0,8.11-3.73c9.73-11.84,9.8-11.78,0-23.47C48.75,21.34,48.36,20.81,47.93,20.3Zm3,13.45C50.82,37.06,48.82,39,45.5,39c-3.57,0-5.55-2.13-5.45-5.7.09-3.35,2.21-5,5.5-5.32C49,28.35,51.1,30.14,51,33.75Z"/><path class="cls-3" d="M40.05,33.25c-.1,3.57,1.88,5.66,5.45,5.7,3.32,0,5.32-1.89,5.45-5.2.15-3.61-2-5.4-5.4-5.82C42.26,28.27,40.14,29.9,40.05,33.25Zm7.8.46a2.45,2.45,0,0,1-2.42,2.1,2.3,2.3,0,1,1,.38-4.57A2.37,2.37,0,0,1,47.85,33.71Z"/></svg>