<svg id="Layer_1" data-name="Layer 1" xmlns="http://www.w3.org/2000/svg" viewBox="0 0 65 65"><defs><style>.cls-0{fill:#fff;}.cls-1{fill:#3498DB;}</style></defs><title>nice-blue-signature-pad</title><path class="cls-1" d="M27.86,43h0S27.87,43,27.86,43Z"/><path class="cls-1" d="M41.5,40.82c-1.49.74-3.86,9.5-5.5,9.85-.89.19-.43-8-.59-8.92a6.2,6.2,0,0,1-.06-1.36c0-.07,0-.14,0-.21s0-.41.06-.61c0-.89-1.47-1.13-1.59-.21l0,.21h0v0c0,.15,0,.3,0,.45-.13,1-.57,2.44-1.68,2.6-.72.1-.82-.56-.73-1.25a8.68,8.68,0,0,0,.32-1.29.81.81,0,0,0-1.57-.43,7.17,7.17,0,0,0-.28,1.23,3.58,3.58,0,0,1-1.15,1.82,1.17,1.17,0,0,1-.46.23c-.07,0-.48.08-.34,0a.11.11,0,0,1,0-.05,3.71,3.71,0,0,1-.15-1.63,29.3,29.3,0,0,1,1.55-7.2c.27-.86-1.11-1.48-1.49-.63a55.43,55.43,0,0,1-3,6,10.78,10.78,0,0,1-2.11,2.85l-.13.09a.67.67,0,0,1-.11-.14,3.55,3.55,0,0,1,0-1.86,16.87,16.87,0,0,1,1.12-3.75c.36-.86-1-1.42-1.48-.63-1.8,3.24-4.46,6.64-8.55,6.41-1,0-1,1.57,0,1.63a9.07,9.07,0,0,0,7.26-3.37c-.12,1.32,0,3.14,1.53,3.35,1.26.18,2.24-1.25,2.87-2.13.38-.54.74-1.1,1.07-1.67a1,1,0,0,1,0,.17,5.43,5.43,0,0,0,.36,3.47c.82,1.28,2.65.72,3.54-.19l.17-.18a1.9,1.9,0,0,0,1.72.79,2.89,2.89,0,0,0,2.25-1.11c.36.71-1.18,10.5.82,11.5s5.48-11.53,7.32-12.45C43.26,41.76,42.43,40.36,41.5,40.82Zm-19.06,1.6Zm0,0h0s0,0,0,0S22.36,42.38,22.44,42.41Z"/><rect class="cls-1" x="12.43" y="46.08" width="49" height="2"/><polygon class="cls-1" points="11.28 38.03 10.32 37.08 7.43 39.98 4.53 37.08 3.57 38.03 6.47 40.93 3.57 43.83 4.53 44.78 7.43 41.88 10.32 44.78 11.28 43.83 8.38 40.93 11.28 38.03"/><path class="cls-1" d="M49.59,20.26,42.87,33.2c-.9,1.72,0,7.64,0,7.64s5.37-2.65,6.27-4.38l6.72-12.94Z"/><path class="cls-1" d="M53.79,12.17l-3.45,6.64,6.28,3.27,3.45-6.64a3.54,3.54,0,0,0-6.28-3.27Z"/><rect class="cls-1" x="48.2" y="10.47" width="1.54" height="12.62" rx="0.77" ry="0.77" transform="translate(13.25 -20.69) rotate(27.46)"/></svg>