<svg id="Layer_1" data-name="Layer 1" xmlns="http://www.w3.org/2000/svg" viewBox="0 0 65 65"><defs><style>.cls-0{fill:#fff;}.cls-1{fill:#8bc4ea;}.cls-2{fill:none;}.cls-3{fill:#3498DB;}</style></defs><title>nice-blue-combo-box
</title><rect class="cls-1" x="2" y="17" width="44" height="19"/><rect class="cls-2" x="2.03" y="17.5" width="42.94" height="11.88"/><rect class="cls-1" x="2.03" y="30.5" width="43.44" height="17"/><path class="cls-3" d="M46.47,16.5H1v32H46.47V30.38H64V16.5Zm-1,31H2v-17H45.47ZM2,17.5H45V29.38H2Z"/><rect class="cls-3" x="8.41" y="33.17" width="26.58" height="1.83"/><rect class="cls-3" x="8.41" y="22.17" width="26.58" height="1.83"/><rect class="cls-3" x="8.41" y="38.17" width="26.58" height="1.83"/><rect class="cls-3" x="8.41" y="43.17" width="26.58" height="1.83"/><polygon class="cls-1" points="61.33 20.07 59.85 20.07 49.55 20.07 49.16 20.07 47.67 20.07 54.7 26.85 61.73 20.07 61.33 20.07"/></svg>