<svg id="Layer_1" data-name="Layer 1" xmlns="http://www.w3.org/2000/svg" viewBox="0 0 75 75"><defs><style>.cls-0{fill:#fff;}.cls-1{fill:#fff;stroke:#3498DB;stroke-miterlimit:10;stroke-width:3px;}.cls-2{fill:#3498DB;}</style></defs><title>password</title><rect class="cls-1" x="3.11" y="22.57" width="68.95" height="32.53" rx="8.28" ry="8.28"/><path class="cls-2" d="M21.33,32.18c0,.7-.31,2.34-.55,4.1l-.27,1.87,1.72-.82c1.95-.94,3.51-1.8,4.32-1.8a1.24,1.24,0,0,1,1.21,1.33c0,1.48-2,1.52-5,2l-1.87.31,1.33,1.4c1.75,1.84,3.16,2.89,3.16,4a1.23,1.23,0,0,1-1.25,1.21c-1.25,0-1.91-1.75-3.24-4.25L20,39.86l-.89,1.68c-1.33,2.5-2,4.25-3.24,4.25a1.23,1.23,0,0,1-1.25-1.21c0-1.09,1.4-2.14,3.16-4l1.33-1.4-1.88-.31c-3.08-.51-5-.63-5-2a1.26,1.26,0,0,1,1.25-1.33c.9,0,2.34.86,4.29,1.8l1.72.82-.28-1.87a38,38,0,0,1-.5-4.1A1.2,1.2,0,0,1,20,30.82,1.23,1.23,0,0,1,21.33,32.18Z"/><path class="cls-2" d="M38.49,32.18c0,.7-.31,2.34-.55,4.1l-.27,1.87,1.71-.82c1.95-.94,3.51-1.8,4.33-1.8a1.24,1.24,0,0,1,1.21,1.33c0,1.48-2,1.52-5,2L38,39.2l1.33,1.4c1.75,1.84,3.15,2.89,3.15,4a1.22,1.22,0,0,1-1.24,1.21C40,45.79,39.35,44,38,41.54l-.9-1.68-.89,1.68c-1.33,2.5-2,4.25-3.24,4.25a1.22,1.22,0,0,1-1.25-1.21c0-1.09,1.4-2.14,3.16-4l1.33-1.4-1.88-.31c-3.08-.51-5-.63-5-2a1.26,1.26,0,0,1,1.25-1.33c.9,0,2.34.86,4.29,1.8l1.72.82-.28-1.87a38,38,0,0,1-.5-4.1,1.2,1.2,0,0,1,1.32-1.36A1.23,1.23,0,0,1,38.49,32.18Z"/><path class="cls-2" d="M55.65,32.18c0,.7-.32,2.34-.55,4.1l-.27,1.87,1.71-.82c2-.94,3.51-1.8,4.33-1.8a1.24,1.24,0,0,1,1.21,1.33c0,1.48-2,1.52-5,2l-1.87.31,1.32,1.4c1.76,1.84,3.16,2.89,3.16,4a1.22,1.22,0,0,1-1.24,1.21c-1.25,0-1.92-1.75-3.24-4.25l-.9-1.68-.9,1.68c-1.32,2.5-2,4.25-3.23,4.25a1.22,1.22,0,0,1-1.25-1.21c0-1.09,1.4-2.14,3.16-4l1.32-1.4-1.87-.31c-3.08-.51-5-.63-5-2a1.26,1.26,0,0,1,1.25-1.33c.9,0,2.34.86,4.29,1.8l1.72.82-.28-1.87a38,38,0,0,1-.5-4.1,1.2,1.2,0,0,1,1.32-1.36A1.23,1.23,0,0,1,55.65,32.18Z"/></svg>