<svg id="Layer_1" data-name="Layer 1" xmlns="http://www.w3.org/2000/svg" viewBox="0 0 65 65"><defs><style>.cls-0{fill:#fff;}.cls-1{fill:#fff;}.cls-2{fill:#3498DB;}</style></defs><title>nice-blue-date-field</title><path class="cls-1" d="M11.74,27.65V53.07a2.48,2.48,0,0,0,2.47,2.47h36.6a2.47,2.47,0,0,0,2.46-2.47V27.64ZM43.29,51.5h-22v-20h22Z"/><rect class="cls-2" x="21.29" y="31.5" width="22" height="20"/><path class="cls-2" d="M58.21,16.46A7.43,7.43,0,0,0,50.79,9H50v4.45a5.06,5.06,0,0,1-10.12,0V9.05H26.6v4.44a5.07,5.07,0,0,1-10.13,0V9.05H14.19a7.45,7.45,0,0,0-7.42,7.43v36.6a7.43,7.43,0,0,0,7.42,7.42l36.6,0a7.43,7.43,0,0,0,7.42-7.42V16.46Zm-7.4,39.07H14.21a2.48,2.48,0,0,1-2.47-2.47V27.65H53.26V53.06A2.47,2.47,0,0,1,50.81,55.53Z"/><path class="cls-2" d="M18.34,13.71a3.21,3.21,0,1,0,6.41,0v-6a3.2,3.2,0,0,0-6.4,0v6Z"/><path class="cls-2" d="M41.69,13.7a3.2,3.2,0,0,0,6.4,0v-6a3.21,3.21,0,1,0-6.41,0v6Z"/></svg>