<svg id="Layer_1" data-name="Layer 1" xmlns="http://www.w3.org/2000/svg" viewBox="0 0 75 75"><defs><style>.cls-0{fill:#fff;}.cls-1{fill:#fff;stroke:#3498DB;stroke-miterlimit:10;stroke-width:3px;}.cls-2{fill:#3498DB;}</style></defs><title>nice-blue-html-container</title><rect class="cls-1" x="5" y="5" width="65" height="65"/><path class="cls-2" d="M16.82,31v5.41h6.25V31h1.69V44H23.07V37.9H16.82V44H15.15V31Z"/><path class="cls-2" d="M30.13,32.45H26.19V31h9.58v1.42h-4V44H30.13Z"/><path class="cls-2" d="M48.12,38.29c-.1-1.81-.21-4-.19-5.59h-.06c-.44,1.52-1,3.13-1.63,4.92L44,43.89H42.68l-2.09-6.16c-.61-1.82-1.13-3.49-1.5-5h0c0,1.61-.14,3.78-.25,5.72L38.46,44H36.87L37.77,31H39.9l2.21,6.26c.54,1.59,1,3,1.3,4.36h.06c.33-1.31.79-2.73,1.36-4.36L47.14,31h2.13L50.07,44H48.44Z"/><path class="cls-2" d="M52.66,31h1.67V42.57h5.52V44H52.66Z"/></svg>