<?xml version="1.0" encoding="utf-8"?>
<!-- Generator: Adobe Illustrator 24.3.0, SVG Export Plug-In . SVG Version: 6.00 Build 0)  -->
<svg version="1.1" id="Layer_1" xmlns="http://www.w3.org/2000/svg" xmlns:xlink="http://www.w3.org/1999/xlink" x="0px" y="0px"
	 viewBox="0 0 16 16" style="enable-background:new 0 0 16 16;" xml:space="preserve">
<style type="text/css">
	.st0{fill:#3EB09C;}
</style>
<path class="st0" d="M14.56,0H1.39C0.62,0,0,0.62,0,1.39v9.45c0,0.76,0.62,1.38,1.39,1.38H6.9v-0.06c0-0.32,0.03-0.64,0.1-0.95H6.02
	V9.02h1.96c0.28-0.38,0.62-0.71,1-0.98H6.02V5.86h3.96v1.59c0.32-0.15,0.66-0.26,1.01-0.33V5.86h3.96v2.05
	c0.37,0.25,0.71,0.55,0.99,0.89V1.39C15.94,0.62,15.32,0,14.56,0z M5,11.21H1.04V9.02H5V11.21z M5,8.04H1.04V5.86H5V8.04z M5,4.87
	H1.04V2.69H5V4.87z M9.98,4.87H6.02V2.69h3.96V4.87z M14.95,4.87h-3.96V2.69h3.96V4.87z"/>
<path class="st0" d="M12.05,8.65c-1.95,0-3.52,1.57-3.52,3.51c0,1.95,1.57,3.52,3.52,3.52c1.94,0,3.51-1.57,3.51-3.52
	C15.56,10.22,13.99,8.65,12.05,8.65z M13.8,12.64h-1.28v1.28h-0.95v-1.28h-1.28v-0.95h1.28v-1.28h0.95v1.28h1.28V12.64z"/>
</svg>
