<?xml version="1.0" encoding="utf-8"?>
<!-- Generator: Adobe Illustrator 24.3.0, SVG Export Plug-In . SVG Version: 6.00 Build 0)  -->
<svg version="1.1" id="Layer_1" xmlns="http://www.w3.org/2000/svg" xmlns:xlink="http://www.w3.org/1999/xlink" x="0px" y="0px"
	 viewBox="0 0 16 16" style="enable-background:new 0 0 16 16;" xml:space="preserve">
<style type="text/css">
	.st0{fill:#3C9DD3;}
</style>
<g>
	<g>
		<path class="st0" d="M8.67,12.64c0,0.51,0.1,1,0.27,1.45H7.1c-1.93,0-3.87,0-5.8,0c-1.24,0-1.52-0.43-1.15-1.61
			C0.52,11.31,1,10.19,2.06,9.52c0.68-0.44,1.48-0.7,2.24-1C4.45,8.46,4.72,8.58,4.86,8.7C6.3,9.92,7.78,9.94,9.27,8.74
			c0.26-0.21,0.5-0.28,0.84-0.19c0.4,0.1,0.77,0.22,1.11,0.38C9.73,9.5,8.67,10.95,8.67,12.64z"/>
		<path class="st0" d="M10.28,3.62c-0.11,1.43-0.42,2.73-1.32,3.81C7.77,8.87,6.28,8.85,5.18,7.35C4.13,5.93,3.73,4.33,4.09,2.57
			C4.4,1.02,5.63-0.01,7.13,0c1.47,0.01,2.71,1.07,3.02,2.62C10.22,2.97,10.24,3.33,10.28,3.62z"/>
	</g>
	<path class="st0" d="M12.64,9.28c-0.23,0-0.46,0.02-0.68,0.07c-1.53,0.31-2.68,1.67-2.68,3.29c0,0.52,0.12,1.01,0.33,1.45
		c0.54,1.13,1.7,1.91,3.03,1.91c1.85,0,3.36-1.51,3.36-3.36C16,10.78,14.49,9.28,12.64,9.28z M13.99,12.29l-1.79,1.79l-0.23,0.23
		l-0.23-0.23l-1.45-1.45l0.47-0.47l1.21,1.2l2.55-2.55l0.47,0.48L13.99,12.29z"/>
</g>
</svg>
