<?xml version="1.0" encoding="utf-8"?>
<!-- Generator: Adobe Illustrator 24.3.0, SVG Export Plug-In . SVG Version: 6.00 Build 0)  -->
<svg version="1.1" id="Layer_1" xmlns="http://www.w3.org/2000/svg" xmlns:xlink="http://www.w3.org/1999/xlink" x="0px" y="0px"
	 viewBox="0 0 16 16" style="enable-background:new 0 0 16 16;" xml:space="preserve">
<style type="text/css">
	.st0{fill:#3C9DD3;}
</style>
<g>
	<g>
		<g>
			<path class="st0" d="M8.67,12.64c0,0.51,0.1,1,0.27,1.45H7.1c-1.93,0-3.87,0-5.8,0c-1.24,0-1.52-0.43-1.15-1.61
				C0.52,11.31,1,10.19,2.06,9.52c0.68-0.44,1.48-0.7,2.24-1C4.45,8.46,4.72,8.58,4.86,8.7C6.3,9.92,7.78,9.94,9.27,8.74
				c0.26-0.21,0.5-0.28,0.84-0.19c0.4,0.1,0.77,0.22,1.11,0.38C9.73,9.5,8.67,10.95,8.67,12.64z"/>
			<path class="st0" d="M10.28,3.62c-0.11,1.43-0.42,2.73-1.32,3.81C7.77,8.87,6.28,8.85,5.18,7.35C4.13,5.93,3.73,4.33,4.09,2.57
				C4.4,1.02,5.63-0.01,7.13,0c1.47,0.01,2.71,1.07,3.02,2.62C10.22,2.97,10.24,3.33,10.28,3.62z"/>
		</g>
	</g>
	<g>
		<path class="st0" d="M12.64,9.28c-0.23,0-0.46,0.02-0.68,0.07c-1.53,0.31-2.68,1.67-2.68,3.29c0,0.52,0.12,1.01,0.33,1.45
			C10.15,15.22,11.3,16,12.64,16C14.5,16,16,14.49,16,12.64C16,10.78,14.5,9.28,12.64,9.28z M14.36,12.64c0,0.08,0,0.15-0.01,0.22
			l0.48,0.38c0.05,0.04,0.06,0.1,0.03,0.15l-0.46,0.79c-0.03,0.06-0.09,0.07-0.14,0.06l-0.57-0.23c-0.12,0.09-0.25,0.16-0.39,0.22
			l-0.09,0.61c0,0.06-0.05,0.1-0.11,0.1h-0.92c-0.05,0-0.1-0.04-0.11-0.1l-0.08-0.54l-0.01-0.07c-0.07-0.03-0.14-0.06-0.2-0.1
			c-0.07-0.03-0.13-0.07-0.19-0.12l-0.57,0.23c-0.05,0.01-0.11,0-0.14-0.06l-0.46-0.79c-0.02-0.05-0.01-0.11,0.03-0.15l0.25-0.19
			l0.24-0.19c-0.02-0.07-0.02-0.15-0.02-0.22s0.01-0.15,0.02-0.23l-0.24-0.18l-0.24-0.19c-0.05-0.04-0.06-0.1-0.03-0.15l0.45-0.79
			c0.03-0.06,0.09-0.08,0.14-0.06l0.58,0.23c0.11-0.09,0.24-0.16,0.38-0.22l0.09-0.61c0.01-0.06,0.06-0.1,0.11-0.1h0.92
			c0.06,0,0.11,0.04,0.12,0.1l0.08,0.61c0.14,0.06,0.27,0.13,0.39,0.22l0.57-0.23h0.04c0.04,0,0.08,0.01,0.1,0.06l0.29,0.5
			l0.17,0.29c0.03,0.05,0.02,0.11-0.03,0.15l-0.48,0.37C14.36,12.49,14.36,12.56,14.36,12.64z"/>
		<path class="st0" d="M13.5,12.64c0,0.06-0.01,0.12-0.02,0.17c-0.07,0.34-0.33,0.6-0.67,0.67c-0.05,0.01-0.11,0.02-0.17,0.02
			c-0.22,0-0.43-0.09-0.58-0.22c-0.17-0.17-0.28-0.39-0.28-0.64c0-0.47,0.39-0.86,0.86-0.86c0.25,0,0.48,0.11,0.64,0.28
			C13.42,12.21,13.5,12.42,13.5,12.64z"/>
	</g>
</g>
</svg>
