<?xml version="1.0" encoding="utf-8"?>
<!-- Generator: Adobe Illustrator 24.3.0, SVG Export Plug-In . SVG Version: 6.00 Build 0)  -->
<svg version="1.1" id="Layer_1" xmlns="http://www.w3.org/2000/svg" xmlns:xlink="http://www.w3.org/1999/xlink" x="0px" y="0px"
	 viewBox="0 0 16 16" style="enable-background:new 0 0 16 16;" xml:space="preserve">
<style type="text/css">
	.st0{fill:#3EB09C;}
</style>
<path class="st0" d="M12.27,0H1.17C0.52,0-0.01,0.52-0.01,1.17v7.97c0,0.64,0.53,1.17,1.18,1.17H2.5V9.45H0.87V7.61H2.5V6.78H0.87
	V4.94H2.5V4.11H0.87V2.27h3.34v0.51h0.86V2.27h3.34v0.51h0.85V2.27h3.34v0.51h0.84V1.17C13.44,0.52,12.91,0,12.27,0z"/>
<g>
	<path class="st0" d="M14.78,2.78H3.67C3.02,2.78,2.5,3.3,2.5,3.95v7.97c0,0.64,0.52,1.16,1.17,1.16h4.65v-0.05
		c0-0.27,0.02-0.54,0.08-0.8H7.57v-1.85h1.66c0.23-0.32,0.52-0.6,0.84-0.82h-2.5V7.72h3.34v1.34c0.27-0.13,0.56-0.22,0.86-0.28V7.72
		h3.34v1.73c0.31,0.21,0.59,0.46,0.83,0.75V3.95C15.94,3.3,15.42,2.78,14.78,2.78z M6.71,12.23H3.37v-1.85h3.34V12.23z M6.71,9.56
		H3.37V7.72h3.34V9.56z M6.71,6.88H3.37V5.05h3.34V6.88z M10.91,6.88H7.57V5.05h3.34V6.88z M15.11,6.88h-3.34V5.05h3.34V6.88z"/>
</g>
<path class="st0" d="M12.66,10.05c-1.64,0-2.97,1.32-2.97,2.96c0,1.64,1.32,2.97,2.97,2.97c1.64,0,2.96-1.32,2.96-2.97
	C15.62,11.37,14.3,10.05,12.66,10.05z M14.14,13.41h-1.08v1.08h-0.8v-1.08h-1.08v-0.8h1.08v-1.08h0.8v1.08h1.08V13.41z"/>
</svg>
