<svg id="Layer_1" data-name="Layer 1" xmlns="http://www.w3.org/2000/svg" viewBox="0 0 16 16"><defs><style>.cls-1{fill:#1b69b3;}.cls-2{fill:#418ecc;}.cls-3{fill:#f47920;}</style></defs><title>designer</title><path class="cls-1" d="M12.31,4.55A6.05,6.05,0,0,0,3.51,10a6.16,6.16,0,0,0,.18,1.5,6.06,6.06,0,1,1,8.62-6.9Z"/><path class="cls-2" d="M12.49,6.05a6.05,6.05,0,0,1-8.8,5.4A6.16,6.16,0,0,1,3.51,10a6.05,6.05,0,0,1,8.8-5.4A6.16,6.16,0,0,1,12.49,6.05Z"/><path class="cls-3" d="M15.61,10A6.05,6.05,0,0,1,3.92,12.14,6.59,6.59,0,0,0,13,6.05a7.21,7.21,0,0,0-.1-1.14A6.06,6.06,0,0,1,15.61,10Z"/></svg>