<svg id="Layer_1" data-name="Layer 1" xmlns="http://www.w3.org/2000/svg" viewBox="0 0 16 16"><defs><style>.cls-1{fill:#e44d3d;}</style></defs><title>Untitled-14</title><path class="cls-1" d="M0,8.94V7.06a2.17,2.17,0,0,0,.86-.18,1.2,1.2,0,0,0,.51-.47,2.13,2.13,0,0,0,.29-.84,9.64,9.64,0,0,0,.06-1.31,11.13,11.13,0,0,1,.14-2.13,2.1,2.1,0,0,1,.51-1A2.62,2.62,0,0,1,3.45.59,5.49,5.49,0,0,1,5,.44h.42V2.32a4,4,0,0,0-1.12.1.75.75,0,0,0-.37.3,1.41,1.41,0,0,0-.12.69c0,.33,0,1-.07,1.88a4.48,4.48,0,0,1-.2,1.26,2.62,2.62,0,0,1-.42.8A3.42,3.42,0,0,1,2.3,8a2.62,2.62,0,0,1,.75.63,2.44,2.44,0,0,1,.46.86,6.17,6.17,0,0,1,.2,1.37c0,.87.06,1.43.06,1.67a1.53,1.53,0,0,0,.12.72.78.78,0,0,0,.38.31,3.56,3.56,0,0,0,1.11.11v1.89H5a6.13,6.13,0,0,1-1.63-.17,2.24,2.24,0,0,1-1-.57,1.88,1.88,0,0,1-.52-1A8.67,8.67,0,0,1,1.72,12a9,9,0,0,0-.12-1.88,1.64,1.64,0,0,0-.53-.9A1.94,1.94,0,0,0,0,8.94Z"/><path class="cls-1" d="M16,8.94a2.17,2.17,0,0,0-.86.18,1.13,1.13,0,0,0-.5.47,2.3,2.3,0,0,0-.3.84,9.57,9.57,0,0,0-.06,1.3,11.33,11.33,0,0,1-.14,2.14,1.93,1.93,0,0,1-.51,1,2.49,2.49,0,0,1-1.08.57,5.49,5.49,0,0,1-1.51.15h-.42V13.67a3.53,3.53,0,0,0,1.1-.11.73.73,0,0,0,.38-.3,1.29,1.29,0,0,0,.13-.68c0-.32,0-.93.07-1.84a4.42,4.42,0,0,1,.21-1.31A2.66,2.66,0,0,1,13,8.6,2.73,2.73,0,0,1,13.7,8a3.17,3.17,0,0,1-.84-.74,3.15,3.15,0,0,1-.51-1.32,21.72,21.72,0,0,1-.12-2.42,2.12,2.12,0,0,0-.11-.79.66.66,0,0,0-.35-.3,3.79,3.79,0,0,0-1.15-.11V.44H11a6.13,6.13,0,0,1,1.63.17,2.22,2.22,0,0,1,.95.56,2.11,2.11,0,0,1,.52,1A8.67,8.67,0,0,1,14.28,4a9.07,9.07,0,0,0,.12,1.88,1.63,1.63,0,0,0,.52.9A2,2,0,0,0,16,7.06Z"/></svg>