<svg id="Layer_1" data-name="Layer 1" xmlns="http://www.w3.org/2000/svg" viewBox="0 0 16 16"><defs><style>.cls-1{fill:#885c39;}</style></defs><title>file-js</title><path class="cls-1" d="M0,8.94V7.06a2.11,2.11,0,0,0,.86-.18,1.22,1.22,0,0,0,.51-.47,2.27,2.27,0,0,0,.29-.84,9.5,9.5,0,0,0,.06-1.31,11.67,11.67,0,0,1,.14-2.13,2.12,2.12,0,0,1,.51-1A2.56,2.56,0,0,1,3.45.59,5.79,5.79,0,0,1,5,.44h.42V2.32a3.84,3.84,0,0,0-1.12.1.78.78,0,0,0-.37.3,1.37,1.37,0,0,0-.12.69c0,.33,0,1-.07,1.88a4.48,4.48,0,0,1-.2,1.26,2.46,2.46,0,0,1-.42.8A3.22,3.22,0,0,1,2.3,8a2.52,2.52,0,0,1,.75.63,2.39,2.39,0,0,1,.46.86,6.38,6.38,0,0,1,.2,1.37c0,.87.06,1.43.06,1.67a1.48,1.48,0,0,0,.12.72.77.77,0,0,0,.38.31,3.78,3.78,0,0,0,1.11.11v1.89H5a6,6,0,0,1-1.63-.17,2.28,2.28,0,0,1-1-.57,1.9,1.9,0,0,1-.52-1A8.54,8.54,0,0,1,1.72,12a8.45,8.45,0,0,0-.12-1.88,1.6,1.6,0,0,0-.53-.9A1.91,1.91,0,0,0,0,8.94Z"/><path class="cls-1" d="M16,8.94a2.11,2.11,0,0,0-.86.18,1.14,1.14,0,0,0-.5.47,2.29,2.29,0,0,0-.3.84,9.43,9.43,0,0,0-.06,1.3,11.78,11.78,0,0,1-.14,2.14,1.92,1.92,0,0,1-.51,1,2.51,2.51,0,0,1-1.08.57,5.46,5.46,0,0,1-1.51.15h-.42V13.67a3.71,3.71,0,0,0,1.1-.11.71.71,0,0,0,.38-.3,1.34,1.34,0,0,0,.13-.68c0-.32,0-.93.07-1.84a4.18,4.18,0,0,1,.21-1.31A2.88,2.88,0,0,1,13.7,8a3.13,3.13,0,0,1-.84-.74,3.19,3.19,0,0,1-.51-1.32,21.67,21.67,0,0,1-.12-2.42,2.1,2.1,0,0,0-.11-.79.64.64,0,0,0-.35-.3,3.72,3.72,0,0,0-1.15-.11V.44H11a6,6,0,0,1,1.63.17,2.18,2.18,0,0,1,.95.56,2.14,2.14,0,0,1,.52,1A8.67,8.67,0,0,1,14.28,4a8.45,8.45,0,0,0,.12,1.88,1.62,1.62,0,0,0,.52.9A2.05,2.05,0,0,0,16,7.06Z"/><path class="cls-1" d="M7.15,8.57H9V9.9a4.14,4.14,0,0,1-.14,1.26,1.89,1.89,0,0,1-.52.84,2.65,2.65,0,0,1-1,.58L7,11.81a1.56,1.56,0,0,0,.8-.51,1.61,1.61,0,0,0,.25-.88h-.9Zm0-3.3V3.42H9V5.27Z"/></svg>