<svg id="Layer_1" data-name="Layer 1" xmlns="http://www.w3.org/2000/svg" viewBox="0 0 16 16"><defs><style>.cls-1{fill:#3eb09c;}</style></defs><title>Untitled-17</title><path class="cls-1" d="M16,7.5A8,8,0,0,0,10.25.33,7.58,7.58,0,0,0,8.91.06a6.93,6.93,0,0,0-1.82,0A7.58,7.58,0,0,0,5.75.33,8,8,0,0,0,0,7.5a4.18,4.18,0,0,0,0,1,8,8,0,0,0,5.73,7.17,7.29,7.29,0,0,0,1.33.27,6.93,6.93,0,0,0,1.82,0,7.29,7.29,0,0,0,1.33-.27A8,8,0,0,0,16,8.5a4.18,4.18,0,0,0,0-1ZM8,2.36A9.11,9.11,0,0,1,9.94,7.5H6.06A9.11,9.11,0,0,1,8,2.36Zm-1.22,0A10,10,0,0,0,5.06,7.5H2.22A5.82,5.82,0,0,1,6.78,2.33ZM2.22,8.5H5.06a10,10,0,0,0,1.72,5.17A5.82,5.82,0,0,1,2.22,8.5Zm3.84,0H9.94A9.11,9.11,0,0,1,8,13.64,9.11,9.11,0,0,1,6.06,8.5Zm3.16,5.17A10,10,0,0,0,10.94,8.5h2.84A5.82,5.82,0,0,1,9.22,13.67ZM10.94,7.5A10,10,0,0,0,9.22,2.33,5.82,5.82,0,0,1,13.78,7.5Z"/></svg>