<?xml version="1.0" encoding="utf-8"?>
<svg id="Layer_1" data-name="Layer 1" viewBox="0 0 20 20" xmlns="http://www.w3.org/2000/svg">
  <defs>
    <style>.cls-1{fill:#4eba6f;}</style>
  </defs>
  <path class="cls-1" d="M 15 0.033 L 15 6.033 C 15 6.282 15.201 6.483 15.45 6.483 C 15.767 6.486 16.07 6.351 16.28 6.113 C 17.35 4.881 19.353 5.269 19.885 6.812 C 20.417 8.355 19.079 9.895 17.477 9.584 C 17.012 9.494 16.591 9.251 16.28 8.893 C 16.071 8.652 15.769 8.513 15.45 8.513 L 15.4 8.513 C 15.163 8.539 14.988 8.745 15 8.983 L 15 14.983 L 9 14.983 C 8.751 14.983 8.55 14.782 8.55 14.533 L 8.55 14.473 C 8.55 14.154 8.689 13.852 8.93 13.643 C 9.39 13.243 9.653 12.663 9.65 12.053 C 9.624 10.849 8.602 9.909 7.4 9.983 C 5.769 10.044 4.816 11.847 5.684 13.229 C 5.795 13.406 5.932 13.566 6.09 13.703 C 6.329 13.913 6.467 14.215 6.47 14.533 L 6.47 14.583 C 6.439 14.817 6.236 14.99 6 14.983 L 0 14.983 L 0 0.033 L 6 0.033 C 6.252 0.028 8.69 -0.032 8.94 -0.027 L 14.94 -0.027"/>
</svg>