<?xml version="1.0" encoding="utf-8"?>
<!-- Generator: Adobe Illustrator 21.0.2, SVG Export Plug-In . SVG Version: 6.00 Build 0)  -->
<svg version="1.1" id="Layer_1" xmlns="http://www.w3.org/2000/svg" xmlns:xlink="http://www.w3.org/1999/xlink" x="0px" y="0px"
	 viewBox="0 0 72 47.4" style="enable-background:new 0 0 72 47.4;" xml:space="preserve">
<style type="text/css">
	.st0{fill:#2179BF;}
</style>
<path class="st0" d="M60.2,0.4c2.6,0.7,4.6,1.8,6.4,3.7c0.9,1,2.3,2.8,2.5,3.3c0,0.1-4.4,3.1-7.1,4.8c-0.1,0.1-0.5-0.4-0.9-1
	c-1.3-1.9-2.7-2.8-4.8-2.9c-3.1-0.2-5.1,1.4-5.1,4.1c0,0.8,0.1,1.3,0.4,1.9c0.7,1.4,2,2.3,5.9,4c7.3,3.2,10.5,5.2,12.4,8.2
	c2.2,3.3,2.7,8.6,1.2,12.5c-1.6,4.3-5.7,7.2-11.4,8.1c-1.8,0.3-5.9,0.3-7.8-0.1c-4.1-0.7-8-2.8-10.4-5.4c-0.9-1-2.8-3.8-2.7-4
	c0-0.1,0.5-0.3,0.9-0.6c0.5-0.3,2.2-1.3,3.8-2.2l2.9-1.7l0.6,0.9c0.9,1.3,2.8,3.1,3.9,3.7c3.3,1.7,7.8,1.5,10-0.5
	c0.9-0.9,1.3-1.8,1.3-3.1c0-1.2-0.1-1.7-0.8-2.6c-0.8-1.1-2.4-2.1-7.1-4.1c-5.3-2.3-7.6-3.7-9.7-5.9c-1.2-1.3-2.3-3.4-2.8-5.1
	c-0.4-1.4-0.5-5.1-0.2-6.5c1.1-5.1,5-8.7,10.5-9.7C54.3-0.1,58.5,0,60.2,0.4z M36.1,4.7l0,4.2h-6.7h-6.7v19v19h-4.7h-4.7v-19v-19
	H6.7H0V4.8c0-2.3,0-4.2,0.1-4.2c0-0.1,8.2-0.1,18-0.1l17.9,0L36.1,4.7z"/>
</svg>
