<svg id="Layer_1" data-name="Layer 1" xmlns="http://www.w3.org/2000/svg" viewBox="0 0 16 16"><defs><style>.cls-1{fill:#77b900;}.cls-2{fill:#fff;}</style></defs><title>web_services</title><path class="cls-1" d="M13.13,7.14c.22,0,.43.06.63.11a2.83,2.83,0,0,1,2.15,2.17A3,3,0,0,1,13,13.14H3.26A3.21,3.21,0,0,1,.57,11.73,3.26,3.26,0,0,1,.65,7.94,3.31,3.31,0,0,1,1.94,7a.43.43,0,0,0,.28-.32,2.18,2.18,0,0,1,1-1.32,2,2,0,0,1,2-.11l0,0a4.24,4.24,0,0,1,2.3-2.11A3.92,3.92,0,0,1,10,3a4,4,0,0,1,1.66.85,4.17,4.17,0,0,1,1.52,3.31Z"/><path class="cls-2" d="M7.6,5.36H8.66a.19.19,0,0,1,.12.16c0,.24.07.48.11.72a.06.06,0,0,0,0,.06l.29.12a.09.09,0,0,0,.11,0L9.9,6c.08-.06.15-.07.22,0l.67.69c.1.1.09.16,0,.28l-.4.51a.07.07,0,0,0,0,.09l.14.33A.09.09,0,0,0,10.6,8l.71.1a.18.18,0,0,1,.16.18v.93a.18.18,0,0,1-.16.18l-.71.1a.1.1,0,0,0-.08.06l-.12.3s0,.06,0,.09l.41.54a.16.16,0,0,1,0,.25c-.15.17-.31.33-.47.5a2.11,2.11,0,0,1-.23.19c-.11.08-.16.08-.26,0L9.34,11a.09.09,0,0,0-.1,0,1.69,1.69,0,0,1-.28.12.11.11,0,0,0-.07.09c0,.23-.07.46-.1.69a.22.22,0,0,1-.12.17h-1a.19.19,0,0,1-.13-.17c0-.23-.07-.47-.1-.7,0,0,0-.06-.06-.07L7,11a.09.09,0,0,0-.1,0l-.55.42c-.09.07-.16.07-.23,0-.23-.23-.46-.45-.68-.69-.09-.09-.09-.16,0-.27l.39-.52s0-.05,0-.09l-.14-.33s0-.05-.06-.06L5,9.33c-.09,0-.16,0-.2-.12V8.15A.21.21,0,0,1,5,8l.69-.1a.1.1,0,0,0,.08-.06c0-.1.08-.2.13-.3a.07.07,0,0,0,0-.09C5.73,7.3,5.6,7.12,5.46,7s-.09-.16,0-.26.3-.33.45-.48A1.21,1.21,0,0,1,6.15,6c.11-.08.15-.08.27,0l.52.41a.09.09,0,0,0,.09,0,1.48,1.48,0,0,1,.29-.12.09.09,0,0,0,.06-.09c0-.23.07-.46.11-.69A.2.2,0,0,1,7.6,5.36ZM9.25,8.69a1.11,1.11,0,1,0-1.12,1.1A1.1,1.1,0,0,0,9.25,8.69Z"/></svg>