<svg id="Layer_1" data-name="Layer 1" xmlns="http://www.w3.org/2000/svg" viewBox="0 0 16 16"><defs><style>.cls-1{fill:orange;}</style></defs><title>open-folder</title><path class="cls-1" d="M16,6.62a1.46,1.46,0,0,0-.19-.7,1.23,1.23,0,0,0-.49-.47,1.26,1.26,0,0,0-.62-.15H13.12V4.83a1,1,0,0,0-1-1H7V3a1,1,0,0,0-1-1H1A1,1,0,0,0,0,3V13a1,1,0,0,0,1,1H11.85a2,2,0,0,0,.91-.25l.27-.18a2.46,2.46,0,0,0,.82-1.05l2-5.28A1.74,1.74,0,0,0,16,6.62Zm-1.22.16L13.12,11.1l-.37,1a1.13,1.13,0,0,1-.37.46,1,1,0,0,1-.53.21H2a.23.23,0,0,1-.11,0,.36.36,0,0,1,0-.11L4,7.32a1.25,1.25,0,0,1,.38-.46.94.94,0,0,1,.53-.21H14.7l.11,0S14.8,6.73,14.78,6.78Z"/></svg>