<?xml version="1.0" encoding="utf-8"?>
<!-- Generator: Adobe Illustrator 24.3.0, SVG Export Plug-In . SVG Version: 6.00 Build 0)  -->
<svg version="1.1" id="Layer_1" xmlns="http://www.w3.org/2000/svg" xmlns:xlink="http://www.w3.org/1999/xlink" x="0px" y="0px"
	 viewBox="0 0 16 16" style="enable-background:new 0 0 16 16;" xml:space="preserve">
<style type="text/css">
	.st0{fill:#49AC1D;}
</style>
<path class="st0" d="M10.22,0H5.77c-1.8,0-3.25,1.46-3.25,3.26v1.57c0,1.8,1.45,3.26,3.25,3.26H6.1v6.64L7.35,16l2.54-1.31
	l-1.29-1.31l1.29-1.28l-1.29-1.23l1.29-1.26V8.1h0.32c1.8,0,3.26-1.47,3.26-3.26V3.26C13.48,1.46,12.02,0,10.22,0z M10.56,2.88
	c0,0.35-0.28,0.63-0.63,0.63H6.06c-0.36,0-0.64-0.28-0.64-0.63V2.43c0-0.35,0.28-0.63,0.64-0.63h3.87c0.35,0,0.63,0.28,0.63,0.63
	V2.88z"/>
</svg>
