<?xml version="1.0" standalone="no"?>
<!DOCTYPE svg PUBLIC "-//W3C//DTD SVG 20010904//EN"
 "http://www.w3.org/TR/2001/REC-SVG-20010904/DTD/svg10.dtd">
<svg version="1.0" xmlns="http://www.w3.org/2000/svg"
 width="880.000000pt" height="1044.000000pt" viewBox="0 0 880.000000 1044.000000"
 preserveAspectRatio="xMidYMid meet">

<g transform="translate(0.000000,1044.000000) scale(0.100000,-0.100000)"
fill="#f33" stroke="none">
<path d="M4340 10356 c-161 -107 -205 -135 -370 -236 -96 -58 -182 -109 -190
-113 -8 -4 -28 -16 -45 -27 -16 -11 -40 -24 -52 -29 -12 -6 -39 -21 -60 -34
-172 -108 -607 -326 -818 -410 -61 -24 -137 -51 -170 -61 -33 -10 -68 -22 -77
-27 -90 -45 -445 -64 -638 -34 -284 44 -446 75 -660 127 -47 11 -107 25 -135
30 -27 5 -57 12 -65 15 -18 8 -109 30 -165 42 -22 4 -56 12 -75 18 -62 20
-134 41 -195 57 -33 9 -80 23 -105 31 -25 8 -53 15 -63 15 -9 0 -25 4 -35 9
-33 19 -131 43 -147 38 -11 -5 -15 -22 -15 -69 0 -35 -7 -103 -15 -153 -8 -49
-15 -117 -15 -151 0 -33 -5 -85 -10 -115 -10 -55 -24 -215 -40 -479 -5 -80
-12 -156 -15 -170 -7 -28 -32 -381 -45 -650 -5 -96 -13 -238 -19 -315 -8 -110
-22 -435 -23 -525 0 -8 -4 -60 -9 -115 -5 -55 -10 -458 -10 -895 0 -740 4
-1029 17 -1090 3 -13 10 -106 15 -205 12 -251 50 -630 83 -830 8 -49 19 -121
25 -160 6 -38 15 -88 20 -110 6 -22 17 -76 26 -120 34 -167 83 -339 135 -475
12 -30 24 -63 27 -73 3 -10 27 -62 53 -115 55 -113 145 -248 256 -388 92 -116
409 -436 539 -544 50 -41 92 -77 95 -80 3 -3 41 -35 85 -70 44 -35 82 -67 85
-70 3 -3 43 -35 90 -70 47 -35 91 -69 97 -75 51 -42 313 -231 418 -300 50 -33
92 -62 95 -65 3 -3 41 -29 85 -58 44 -28 87 -56 95 -62 69 -47 244 -160 247
-160 2 0 30 -17 61 -38 49 -33 288 -178 531 -323 107 -63 122 -72 281 -162 68
-38 206 -114 270 -149 36 -19 108 -59 160 -88 87 -49 236 -128 350 -186 25
-12 58 -27 73 -33 15 -6 27 -15 27 -21 0 -5 7 -10 15 -10 8 0 15 5 15 10 0 6
11 15 25 20 14 5 42 18 62 28 113 57 280 145 363 192 136 76 213 119 230 127
8 3 31 16 50 28 19 12 67 39 105 59 39 21 86 47 105 58 19 11 62 35 96 54 33
18 88 51 122 73 33 23 64 41 67 41 4 0 67 37 141 83 74 45 142 87 152 92 45
25 214 131 282 175 41 27 105 69 142 92 145 93 561 379 633 436 6 4 44 33 85
64 559 418 964 812 1182 1148 50 77 148 266 148 284 0 5 6 22 14 39 8 18 16
41 19 52 3 11 15 45 27 75 12 30 26 71 30 90 5 19 16 64 25 100 48 192 74 312
86 400 5 36 13 85 18 110 18 79 34 193 38 265 2 39 8 88 13 111 5 22 14 105
20 185 6 79 13 155 16 169 3 14 10 104 14 200 5 96 14 272 20 390 14 260 7
1898 -9 2035 -5 50 -11 173 -12 275 -2 102 -8 241 -15 310 -7 69 -13 175 -13
235 -1 61 -6 151 -12 200 -5 50 -14 167 -19 260 -5 94 -14 226 -19 295 -6 69
-12 154 -15 190 -5 73 -22 264 -37 415 -5 55 -14 152 -20 215 -27 312 -27 313
-76 287 -15 -8 -59 -29 -98 -46 -38 -18 -83 -39 -98 -47 -16 -8 -32 -14 -37
-14 -5 0 -37 -13 -72 -28 -35 -16 -79 -35 -98 -42 -46 -17 -79 -31 -169 -69
-40 -17 -81 -31 -90 -31 -9 0 -21 -4 -26 -9 -11 -10 -42 -22 -205 -77 -58 -20
-119 -42 -137 -50 -17 -8 -35 -14 -41 -14 -5 0 -43 -11 -83 -24 -78 -25 -145
-44 -244 -69 -33 -9 -80 -21 -105 -28 -25 -7 -67 -16 -95 -20 -27 -4 -72 -12
-100 -18 -27 -5 -115 -10 -195 -11 -142 0 -241 13 -330 45 -19 7 -51 18 -70
25 -19 6 -46 14 -60 17 -14 2 -34 8 -45 13 -11 5 -60 25 -110 45 -151 62 -609
284 -625 304 -3 3 -23 15 -45 26 -22 11 -84 46 -138 77 -54 32 -100 58 -103
58 -5 0 -324 193 -404 245 -36 23 -111 72 -167 108 -56 37 -106 67 -110 67 -4
0 -37 -20 -73 -44z m172 -498 c144 -93 242 -153 262 -161 11 -4 23 -12 26 -16
3 -5 23 -18 45 -30 22 -12 65 -37 97 -54 64 -36 109 -61 188 -104 30 -17 71
-40 91 -51 222 -125 707 -343 854 -382 17 -5 55 -16 85 -25 205 -60 365 -82
514 -71 172 12 342 36 396 55 14 5 61 17 105 26 44 9 100 23 125 30 25 8 72
21 105 31 33 9 76 22 95 29 19 7 80 27 135 45 145 46 370 129 506 187 48 20
79 10 79 -25 0 -15 5 -81 11 -147 20 -245 39 -494 49 -640 5 -82 14 -220 19
-305 6 -85 13 -202 15 -260 3 -58 10 -190 15 -295 30 -534 36 -797 36 -1555 0
-443 -4 -859 -8 -925 -5 -66 -13 -196 -17 -290 -12 -226 -27 -423 -39 -515 -6
-41 -15 -115 -21 -165 -32 -271 -78 -520 -126 -689 -8 -26 -14 -55 -14 -63 0
-14 -51 -174 -70 -218 -114 -270 -233 -439 -490 -695 -164 -164 -221 -217
-335 -310 -44 -36 -82 -68 -85 -72 -10 -13 -464 -356 -530 -401 -14 -9 -54
-37 -90 -63 -140 -99 -359 -245 -545 -363 -181 -114 -585 -361 -592 -361 -4 0
-14 -6 -22 -14 -9 -8 -56 -36 -106 -64 -49 -27 -106 -59 -125 -70 -19 -11 -55
-32 -80 -45 -25 -14 -61 -34 -80 -45 -36 -22 -68 -39 -160 -89 -30 -17 -75
-42 -100 -55 -127 -71 -301 -158 -314 -158 -22 0 -160 69 -311 154 -27 16 -72
41 -100 56 -27 15 -106 58 -173 96 -68 38 -147 82 -175 98 -29 15 -110 63
-182 105 -71 42 -137 81 -146 86 -22 12 -382 234 -415 255 -84 54 -198 127
-213 135 -9 6 -49 33 -90 60 -40 28 -80 55 -89 60 -8 6 -47 32 -86 58 -39 27
-96 65 -126 85 -30 20 -59 43 -63 49 -4 7 -13 13 -18 13 -11 0 -355 253 -474
349 -288 231 -589 517 -738 702 -42 53 -77 99 -77 102 0 3 -25 43 -55 88 -30
45 -55 86 -55 91 0 5 -14 39 -31 76 -17 37 -35 76 -40 87 -20 48 -69 207 -89
290 -12 50 -25 104 -30 120 -20 71 -54 261 -70 388 -5 43 -12 82 -15 87 -3 5
-10 55 -15 112 -5 57 -14 153 -20 213 -24 243 -30 326 -35 450 -3 72 -10 202
-15 290 -9 138 -12 1467 -5 1595 2 25 8 182 14 350 6 168 15 368 21 445 6 77
15 230 21 340 20 384 28 510 38 575 6 36 11 106 12 156 1 50 5 113 10 140 4
27 13 125 18 218 7 104 16 175 23 184 14 16 91 12 125 -7 17 -10 73 -24 158
-40 22 -4 56 -12 75 -19 46 -14 136 -36 235 -57 74 -16 123 -26 135 -30 3 -1
25 -4 50 -9 25 -4 72 -13 105 -21 33 -7 92 -18 130 -24 39 -5 97 -15 130 -21
58 -10 191 -23 385 -38 146 -11 324 14 520 73 30 9 69 20 85 24 17 5 41 13 55
19 14 5 43 17 65 25 206 78 563 243 735 340 19 11 60 33 90 50 102 55 125 68
155 88 17 10 39 23 51 28 11 5 51 28 88 50 36 23 69 41 72 41 3 0 20 10 37 23
17 12 39 27 49 32 9 6 60 37 113 70 133 84 138 86 161 80 11 -2 50 -24 86 -47z"/>
<path d="M4388 9394 c-12 -7 -30 -17 -38 -21 -8 -4 -87 -50 -175 -103 -88 -53
-167 -100 -175 -104 -8 -3 -51 -27 -95 -51 -89 -49 -580 -295 -590 -295 -3 0
-30 -11 -58 -23 -50 -23 -79 -35 -177 -72 -25 -9 -58 -22 -75 -29 -50 -21 -99
-38 -125 -43 -14 -3 -39 -11 -57 -19 -17 -8 -37 -14 -44 -14 -7 0 -26 -4 -43
-9 -43 -13 -136 -36 -231 -57 -64 -14 -128 -17 -315 -17 -132 0 -259 5 -290
12 -30 6 -93 16 -140 21 -111 14 -248 36 -335 53 -38 8 -119 24 -180 36 -60
12 -136 29 -168 38 -40 11 -61 13 -68 6 -6 -6 -14 -60 -19 -119 -5 -60 -14
-174 -20 -254 -7 -80 -14 -190 -16 -245 -2 -55 -9 -161 -14 -235 -10 -128 -19
-316 -40 -865 -12 -311 -12 -1389 0 -1710 13 -340 25 -560 39 -685 6 -58 18
-172 27 -255 8 -82 22 -180 30 -216 8 -37 14 -84 14 -105 0 -21 6 -63 14 -93
8 -31 22 -92 31 -136 9 -44 23 -100 30 -125 7 -25 21 -72 30 -105 22 -78 32
-107 67 -183 15 -35 28 -66 28 -69 0 -8 120 -183 149 -217 243 -283 534 -539
993 -873 62 -45 118 -86 123 -90 15 -12 213 -146 233 -158 28 -17 107 -69 112
-75 3 -3 41 -29 85 -57 44 -29 85 -57 92 -63 7 -5 15 -10 18 -10 4 0 57 -33
118 -73 62 -40 126 -82 144 -93 18 -10 65 -39 105 -63 39 -24 81 -49 92 -55
12 -6 39 -23 61 -37 22 -14 78 -47 125 -74 47 -26 87 -51 90 -54 3 -3 25 -16
50 -29 25 -13 59 -32 75 -42 17 -10 41 -25 55 -33 14 -7 68 -38 120 -67 52
-29 128 -71 169 -92 41 -22 98 -52 127 -69 59 -32 80 -35 109 -16 11 8 74 42
140 77 66 35 125 66 130 70 6 4 39 23 75 42 123 67 165 91 181 104 8 8 19 14
23 14 3 0 58 32 122 70 63 39 117 70 120 70 2 0 23 12 47 27 54 35 67 43 118
71 23 13 78 47 123 76 45 29 108 69 141 89 33 21 94 60 135 87 41 27 82 53 90
57 8 3 17 9 20 13 3 3 23 17 45 30 22 13 42 27 45 30 3 3 46 32 95 65 153 101
387 265 448 314 33 25 76 57 96 71 125 84 496 402 641 549 95 97 210 226 210
236 0 3 5 11 10 18 86 102 161 255 205 412 9 33 22 83 30 110 31 115 45 176
45 202 0 16 7 50 15 77 8 27 15 65 15 84 0 19 7 71 15 116 20 111 45 321 45
378 0 26 5 80 10 120 11 77 24 279 40 638 11 221 6 1954 -5 2000 -3 14 -12
169 -20 345 -23 515 -34 713 -45 830 -5 61 -12 159 -14 219 -3 59 -7 110 -10
113 -2 3 -40 -7 -83 -21 -84 -28 -133 -43 -228 -71 -33 -10 -77 -24 -98 -31
-20 -8 -50 -14 -65 -14 -15 0 -32 -4 -38 -9 -5 -5 -36 -15 -69 -21 -33 -7 -91
-18 -130 -26 -80 -17 -94 -19 -225 -41 -132 -22 -473 -22 -567 0 -37 9 -106
25 -153 36 -47 10 -110 26 -140 35 -30 9 -72 21 -93 27 -21 5 -45 13 -55 18
-9 5 -37 17 -62 26 -25 9 -60 23 -78 31 -18 8 -39 14 -47 14 -7 0 -26 6 -42
14 -28 14 -75 35 -123 54 -31 12 -339 160 -360 172 -8 5 -51 27 -95 49 -90 45
-215 113 -260 141 -16 10 -52 31 -79 45 -81 44 -91 50 -96 56 -9 10 -161 99
-169 99 -5 0 -14 6 -20 14 -18 21 -47 25 -73 10z m211 -1669 c53 -9 123 -23
156 -31 98 -26 169 -47 185 -55 8 -4 50 -24 92 -43 42 -19 103 -52 135 -73 32
-21 65 -41 73 -44 33 -14 190 -161 252 -235 57 -69 129 -176 151 -224 4 -8 11
-22 16 -30 27 -48 41 -80 41 -97 0 -10 4 -23 9 -28 6 -6 14 -28 20 -50 5 -22
14 -58 20 -80 29 -118 32 -193 29 -640 l-3 -460 -235 -3 c-129 -1 -245 0 -257
3 l-23 5 0 468 c0 428 -2 473 -19 532 -73 251 -263 442 -526 528 -110 36 -164
44 -298 45 -160 2 -274 -23 -416 -90 -151 -72 -288 -204 -358 -346 -24 -47
-43 -92 -43 -100 0 -8 -7 -34 -15 -58 -13 -37 -16 -116 -15 -511 l0 -468 -23
-5 c-12 -3 -128 -4 -257 -3 l-235 3 0 485 c0 311 4 511 12 556 42 268 217 558
450 746 61 49 244 168 259 168 3 0 20 6 37 14 91 41 127 56 137 56 5 0 18 4
28 9 18 9 111 30 247 54 107 20 256 20 374 2z m1321 -2275 c42 -22 79 -65 100
-120 21 -51 19 -2098 -1 -2151 -17 -43 -53 -86 -94 -114 -30 -20 -49 -20
-1498 -23 -1355 -2 -1471 -1 -1505 14 -50 23 -100 79 -114 128 -18 65 -19
2087 -1 2140 19 55 57 102 101 126 36 19 69 19 1505 20 1446 0 1468 0 1507
-20z"/>
<path d="M4340 4801 c-58 -10 -95 -30 -147 -81 -51 -49 -71 -85 -90 -164 -27
-115 9 -216 112 -311 l65 -60 -21 -55 c-11 -30 -24 -66 -29 -80 -5 -14 -18
-50 -30 -80 -12 -30 -24 -64 -27 -75 -3 -11 -9 -24 -13 -30 -17 -25 -52 -136
-46 -150 8 -22 594 -22 603 1 5 14 -12 69 -43 139 -7 17 -22 55 -33 85 -10 30
-29 80 -41 110 -54 139 -54 140 -29 158 91 63 135 126 154 220 12 58 12 76 0
129 -23 100 -84 179 -170 223 -41 21 -150 31 -215 21z"/>
</g>
</svg>
