<svg id="Layer_1" data-name="Layer 1" xmlns="http://www.w3.org/2000/svg" viewBox="0 0 16 12.96"><defs><style>.cls-1{fill:orange;}</style></defs><title>folder-open</title><path class="cls-1" d="M16,5.3a1.41,1.41,0,0,0-.19-.7,1.3,1.3,0,0,0-.49-.47A1.21,1.21,0,0,0,14.7,4H13.12V3.51a1,1,0,0,0-1-1H7V1.68a1,1,0,0,0-1-1H1a1,1,0,0,0-1,1v10a1,1,0,0,0,1,1H11.85a2.07,2.07,0,0,0,.91-.25l.27-.18a2.49,2.49,0,0,0,.82-1.05l2-5.28A1.71,1.71,0,0,0,16,5.3Zm-1.22.16L13.12,9.78l-.37,1a1.18,1.18,0,0,1-.37.46,1,1,0,0,1-.53.21H2a.21.21,0,0,1-.11,0,.2.2,0,0,1,0-.11L4,6a1.3,1.3,0,0,1,.38-.46.88.88,0,0,1,.53-.21h9.9A.66.66,0,0,1,14.78,5.46Z"/></svg>